<?xml version="1.0" encoding="utf-8"?>
<!-- Generator: Adobe Illustrator 16.0.0, SVG Export Plug-In . SVG Version: 6.00 Build 0)  -->
<!DOCTYPE svg PUBLIC "-//W3C//DTD SVG 1.1//EN" "http://www.w3.org/Graphics/SVG/1.1/DTD/svg11.dtd">
<svg version="1.1" id="Layer_1" xmlns="http://www.w3.org/2000/svg" xmlns:xlink="http://www.w3.org/1999/xlink" x="0px" y="0px"
	 width="612px" height="268px" viewBox="0 0 612 268" enable-background="new 0 0 612 268" xml:space="preserve">
<g>
	<path fill-rule="evenodd" clip-rule="evenodd" fill="#EE8659" d="M327.852,116.916c1.191,5.515,2.291,10.684,3.43,15.843
		c0.625,2.825,2.33,4.153,5.246,4.157c6,0.007,11.998,0.007,17.996,0c3.004-0.004,5.191-2.012,5.238-4.784
		c0.045-2.852-2.15-5.023-5.17-5.041c-4.416-0.025-8.834-0.027-13.25,0.01c-0.883,0.007-1.256-0.188-1.457-1.152
		c-2.174-10.39-4.418-20.764-6.641-31.144c-0.611-2.856-2.207-4.569-4.492-4.808c-2.619-0.273-4.754,1.321-5.455,4.13
		c-1.617,6.474-3.205,12.956-4.818,19.43c-1.412,5.667-2.842,11.33-4.271,17.02c-0.637-0.235-0.561-0.845-0.697-1.282
		c-1.617-5.13-3.164-10.281-4.801-15.403c-1.104-3.454-4.911-4.67-7.745-2.55c-0.891,0.667-1.398,1.58-1.775,2.606
		c-1.453,3.963-2.957,7.908-4.38,11.882c-0.323,0.905-0.703,1.295-1.75,1.284c-5.765-0.062-11.531-0.039-17.297-0.018
		c-0.709,0.002-1.217-0.091-1.539-0.841c-5.554-12.917-5.6-25.589,2.695-37.334c7.095-10.046,17.136-15.014,29.552-14.535
		c5.909,0.228,11.1,2.786,16.051,5.836c1.582,0.974,3.197,1.895,4.762,2.893c1.926,1.229,3.801,1.136,5.777,0.078
		c2.986-1.6,5.85-3.427,8.936-4.84c10.328-4.729,20.68-4.656,30.713,0.554c7.289,3.785,11.65,10.334,14.111,17.982
		c5.629,17.495,1.605,32.966-10.547,46.44c-5.881,6.519-13.283,11.162-20.633,15.807c-8.244,5.21-16.744,10.019-24.707,15.672
		c-0.586,0.416-0.977,0.375-1.582-0.008c-13.018-8.235-25.349-17.41-37.271-27.146c-0.702-0.573-1.4-0.775-2.278-0.773
		c-8.044,0.023-16.089,0.025-24.134,0.007c-2.493-0.005-4.519-1.814-4.908-4.291c-0.351-2.227,1.131-4.778,3.356-5.31
		c1.467-0.35,3.037-0.349,4.562-0.354c9.346-0.029,18.692-0.015,28.038-0.015c3.634,0,4.832-0.841,6.099-4.281
		c0.207-0.563,0.417-1.124,0.742-2.001c0.512,1.645,0.935,3.01,1.36,4.375c1.629,5.223,3.258,10.446,4.887,15.669
		c0.748,2.391,2.598,3.797,4.926,3.744c2.23-0.051,4.061-1.506,4.662-3.889c2.691-10.653,5.344-21.316,8.012-31.975
		C327.516,118.115,327.645,117.674,327.852,116.916z"/>
	<path fill-rule="evenodd" clip-rule="evenodd" fill="#9AB189" d="M57.042,105.027c0-20.501,0-41.003,0-61.505
		c0-2.629,0.861-3.489,3.5-3.49c5.625-0.002,11.25-0.003,16.875,0c2.474,0.002,3.368,0.892,3.368,3.336
		c0.001,10.878,0.017,21.757-0.022,32.635c-0.004,1.216,0.208,1.491,1.459,1.119c5.796-1.725,11.723-2.592,17.78-2.85
		c8.444-0.359,16.763,0.309,24.892,2.611c11.815,3.346,20.866,10.124,25.962,21.588c2.145,4.825,3.321,9.902,3.89,15.145
		c0.421,3.883,0.664,7.769,0.484,11.667c-0.379,8.199-1.596,16.237-5.115,23.757c-5.244,11.208-14.133,18.153-25.775,21.804
		c-5.146,1.614-10.433,2.462-15.813,2.881c-5.573,0.435-11.149,0.353-16.712,0.157c-8.282-0.292-16.55-0.926-24.731-2.369
		c-2.323-0.41-4.652-0.787-6.975-1.194c-2.378-0.417-3.066-1.245-3.066-3.651C57.042,146.123,57.042,125.575,57.042,105.027z
		 M80.786,125.359c0,8.556,0.032,17.112-0.034,25.667c-0.01,1.27,0.342,1.785,1.581,2.012c4.2,0.768,8.422,1.199,12.687,1.477
		c5.179,0.338,10.295,0.159,15.345-0.955c9.365-2.066,15.989-7.398,19.062-16.659c2.736-8.25,2.908-16.692,1.188-25.137
		c-1.006-4.943-3.453-9.166-7.547-12.329c-4.65-3.593-10.115-4.84-15.755-5.189c-8.58-0.531-17.046,0.293-25.207,3.284
		c-0.981,0.359-1.349,0.809-1.344,1.882C80.806,108.061,80.786,116.71,80.786,125.359z"/>
	<path fill-rule="evenodd" clip-rule="evenodd" fill="#9AB189" d="M221.182,131.585c-11.157,0-22.314,0-33.472,0
		c-2.086,0-2.047-0.004-1.791,2.1c0.475,3.899,1.747,7.497,4.072,10.669c3.618,4.935,8.757,7.478,14.518,8.932
		c7.549,1.906,15.222,1.898,22.941,1.498c4.866-0.253,9.696-0.703,14.504-1.47c2.881-0.46,5.729-1.086,8.565-1.761
		c2.034-0.484,3.53,0.629,3.543,2.707c0.029,4.462,0.021,8.926,0.003,13.389c-0.007,1.547-0.653,2.308-2.231,2.737
		c-5.242,1.424-10.597,2.168-15.986,2.776c-7.585,0.854-15.193,1.023-22.799,0.758c-9.707-0.338-19.176-1.977-27.969-6.394
		c-11.079-5.565-17.943-14.529-21.164-26.406c-1.897-7-2.48-14.15-2.176-21.356c0.338-7.966,1.62-15.754,5.196-23.015
		c4.636-9.413,12.07-15.597,21.881-19.036c6.395-2.242,13.005-3.167,19.771-3.446c7.555-0.312,14.995,0.218,22.323,2.052
		c6.596,1.65,12.568,4.587,17.47,9.357c4.204,4.09,7.006,9.095,8.696,14.708c1.781,5.917,2.35,12,2.199,18.139
		c-0.082,3.374-0.471,6.744-0.826,10.104c-0.241,2.284-1.094,2.957-3.379,2.957C243.776,131.587,232.479,131.585,221.182,131.585z
		 M210.951,112.282c7.479,0,14.958,0,22.437,0c2.564,0,2.653-0.015,2.211-2.573c-1.37-7.93-5.462-13.367-13.881-15.577
		c-5.844-1.534-11.756-1.406-17.649-0.446c-4.164,0.678-8.049,2.127-11.324,4.944c-3.73,3.207-5.607,7.375-6.61,12.084
		c-0.279,1.313-0.018,1.597,1.265,1.59C195.249,112.259,203.1,112.282,210.951,112.282z"/>
	<path fill-rule="evenodd" clip-rule="evenodd" fill="#9AB189" d="M400.23,119.455c0-17.018-0.217-34.039,0.084-51.051
		c0.164-9.339,3.342-17.738,10.451-24.248c4.338-3.972,9.512-6.415,15.109-8.032c8.115-2.344,16.438-2.857,24.805-2.451
		c8.754,0.425,17.229,2.416,25.494,5.298c1.643,0.573,2.193,1.378,2.199,3.138c0.012,4.231,0.012,8.462,0,12.694
		c-0.008,2.52-1.658,3.699-4.092,2.877c-4.045-1.366-8.121-2.6-12.311-3.452c-5.975-1.214-12.01-1.9-18.1-1.577
		c-4.836,0.257-9.602,1.009-13.729,3.903c-3.445,2.417-5.193,5.829-5.896,9.878c-0.369,2.12-0.223,4.259-0.314,6.39
		c-0.047,1.098,0.373,1.302,1.369,1.297c7.207-0.038,14.414-0.021,21.621-0.02c2.713,0,3.785,1.071,3.791,3.802
		c0.008,3.859,0.006,7.718,0,11.578c-0.004,2.734-1.072,3.813-3.793,3.816c-7.021,0.007-14.041-0.003-21.063,0.005
		c-2.15,0.002-1.898-0.229-1.898,1.971c-0.006,25.015-0.004,50.029-0.004,75.045c0,2.858-0.797,3.675-3.607,3.678
		c-5.533,0.004-11.066,0.004-16.598,0c-2.906-0.002-3.547-0.636-3.547-3.487c-0.002-17.018,0-34.035,0-51.053
		C400.211,119.455,400.221,119.455,400.23,119.455z"/>
	<path fill-rule="evenodd" clip-rule="evenodd" fill="#9AB189" d="M500.367,105.598c0-14.411,0-28.823,0-43.234
		c0-2.727,0.654-3.394,3.34-3.396c3.439-0.002,6.879-0.004,10.32,0.001c2.123,0.003,2.83,0.536,3.354,2.567
		c0.961,3.722,1.936,7.441,2.828,11.18c0.244,1.031,0.643,1.417,1.756,1.41c7.857-0.052,15.715-0.03,23.57-0.027
		c2.836,0.001,3.711,0.888,3.711,3.744c0,3.951-0.104,7.906,0.033,11.854c0.098,2.845-1.43,3.579-3.629,3.593
		c-4.277,0.027-8.555,0.008-12.832,0.008c-2.51,0-5.021,0.035-7.529-0.018c-0.92-0.02-1.188,0.283-1.186,1.191
		c0.027,17.154-0.01,34.309,0.051,51.462c0.02,5.832,3.348,9.021,9.154,9.048c4.23,0.019,8.461-0.002,12.691,0.007
		c2.287,0.004,3.242,0.947,3.244,3.183c0.004,4.23,0.004,8.461,0,12.692c-0.004,2.158-0.9,3.123-3,3.124
		c-6.832,0.006-13.676,0.213-20.496-0.094c-6.953-0.313-13.439-2.208-18.521-7.435c-3.928-4.039-5.801-9-6.527-14.448
		c-0.723-5.408-0.277-10.857-0.313-16.288C500.32,125.682,500.367,115.64,500.367,105.598z"/>
	<path fill-rule="evenodd" clip-rule="evenodd" fill="#9AB189" d="M461.9,124.003c0-15.434,0-30.868,0-46.302
		c0-2.575,1.033-3.6,3.645-3.602c5.578-0.004,11.156-0.005,16.736,0c2.439,0.002,3.584,1.121,3.584,3.587
		c0.006,30.961,0.006,61.922,0,92.882c0,2.445-0.959,3.417-3.34,3.422c-5.766,0.011-11.529,0.011-17.295,0
		c-2.418-0.005-3.328-0.944-3.328-3.408C461.898,155.057,461.9,139.53,461.9,124.003z"/>
	
</g>
</svg>
